<svg id="Слой_1" data-name="Слой 1" xmlns="http://www.w3.org/2000/svg" viewBox="0 0 147.82 20.51"><defs><style>.cls-1{fill:#5a7aaf;}</style></defs><title>logo KO</title><path class="cls-1" d="M107.89,19.9V19.36H108a0.82,0.82,0,0,0,.26-0.17,1.11,1.11,0,0,0,.24-0.33,2.2,2.2,0,0,0,.16-0.52,2.63,2.63,0,0,0,0-.37,0.85,0.85,0,0,0-.09-0.41,0.47,0.47,0,0,0-.21-0.22,0.53,0.53,0,0,0-.27-0.07h-0.2V16.76a1.22,1.22,0,0,1,.31,0,1.29,1.29,0,0,1,.44.09,0.83,0.83,0,0,1,.4.34,1.13,1.13,0,0,1,.18.7,3.12,3.12,0,0,1,0,.48,2.45,2.45,0,0,1-.29.83,1.77,1.77,0,0,1-.44.5,1.43,1.43,0,0,1-.46.22h-0.1v0Zm0-3.15v0.53h-0.06a1.26,1.26,0,0,0-.27.17,1,1,0,0,0-.23.34,1.67,1.67,0,0,0-.16.51,1.63,1.63,0,0,0,0,.37,0.85,0.85,0,0,0,.09.41,0.5,0.5,0,0,0,.21.23,0.61,0.61,0,0,0,.27.06h0.19v0.54h-0.3a1.53,1.53,0,0,1-.44-0.08,0.92,0.92,0,0,1-.41-0.35,1.22,1.22,0,0,1-.17-0.7,2.2,2.2,0,0,1,0-.48,2.32,2.32,0,0,1,.29-0.83,1.63,1.63,0,0,1,.44-0.5,1.67,1.67,0,0,1,.46-0.22h0.09Zm-4,3.1V19.32H104a0.47,0.47,0,0,0,.51-0.43h0a0.37,0.37,0,0,0,0-.09,0.23,0.23,0,0,0-.1-0.21,0.4,0.4,0,0,0-.24-0.08h-0.27V18h0.31a0.52,0.52,0,0,0,.3-0.09,0.36,0.36,0,0,0,.15-0.26,0.33,0.33,0,0,0,0-.09q0-.24-0.36-0.24h-0.41V16.79h0.63A0.68,0.68,0,0,1,105,17a0.63,0.63,0,0,1,.15.43,1.17,1.17,0,0,1,0,.17A0.92,0.92,0,0,1,105,18a1.19,1.19,0,0,1-.28.21,0.51,0.51,0,0,1,.3.51,1.87,1.87,0,0,1,0,.23,1.25,1.25,0,0,1-.13.35,1,1,0,0,1-.22.28,0.89,0.89,0,0,1-.21.15,1.14,1.14,0,0,1-.26.1h-0.33v0Zm0-3.06v0.53h-0.23l-0.12.67h0.35V18.5H103.4l-0.14.82h0.6v0.53h-1.23l0.57-3.06h0.69Zm-19,3.06V19.32H85a0.5,0.5,0,0,0,.32-0.11,0.48,0.48,0,0,0,.16-0.3,0.27,0.27,0,0,0,0-.1,0.31,0.31,0,0,0-.09-0.23,0.34,0.34,0,0,0-.25-0.09H84.92V18h0.36a1.15,1.15,0,0,1,.42.08,0.73,0.73,0,0,1,.29.25,0.75,0.75,0,0,1,.11.39,1.22,1.22,0,0,1,0,.21,1.25,1.25,0,0,1-.22.5,1.14,1.14,0,0,1-.41.33,1.31,1.31,0,0,1-.51.11h0Zm0-2.52V16.79h1.35l-0.1.54H84.92ZM90,19.85H87.48l0.57-3.06h0.57l-0.47,2.52h0.56l0.47-2.52h0.56l-0.47,2.52h0.56l0.47-2.52h0.56l-0.47,2.52h0.26l-0.21,1.11H89.92Zm4.37-2.52H93L92.87,18h1.31l-0.11.55h-1.3l-0.15.79H94.1l-0.1.54H92l0.57-3.06h2Zm3.28,0.46a0.78,0.78,0,0,0-.08-0.37,0.43,0.43,0,0,0-.38-0.15,0.74,0.74,0,0,0-.33.1,0.9,0.9,0,0,0-.32.34,2,2,0,0,0-.22.63,1.66,1.66,0,0,0,0,.38,0.92,0.92,0,0,0,.13.49,0.43,0.43,0,0,0,.38.18,0.58,0.58,0,0,0,.29-0.07,0.73,0.73,0,0,0,.24-0.19,1,1,0,0,0,.16-0.32H98a2,2,0,0,1-.22.46,1.54,1.54,0,0,1-.3.36,1.57,1.57,0,0,1-.38.23,1.23,1.23,0,0,1-.46.08A0.94,0.94,0,0,1,96,19.65a1.2,1.2,0,0,1-.26-0.83,2.12,2.12,0,0,1,0-.49,2.53,2.53,0,0,1,.33-0.91,1.66,1.66,0,0,1,.55-0.55,1.28,1.28,0,0,1,.66-0.18,1.09,1.09,0,0,1,.56.13,0.78,0.78,0,0,1,.31.36,1.07,1.07,0,0,1,.1.46,0.75,0.75,0,0,1,0,.13H97.67Zm2.66,2.06H99.78l0.47-2.52H99.44l0.1-.54h2.17l-0.1.54H100.8ZM84.92,16.79v0.54H84.69L84.57,18h0.35V18.5H84.46l-0.14.81h0.6v0.53H83.68l0.57-3.06h0.67ZM81.1,19.9V19.36h0.06a0.76,0.76,0,0,0,.27-0.17,1.31,1.31,0,0,0,.24-0.33,1.84,1.84,0,0,0,.15-0.52,1.69,1.69,0,0,0,0-.37,1,1,0,0,0-.08-0.41,0.47,0.47,0,0,0-.21-0.22,0.53,0.53,0,0,0-.27-0.07h-0.2V16.76a1.15,1.15,0,0,1,.3,0,1.25,1.25,0,0,1,.44.09,0.81,0.81,0,0,1,.41.34,1.2,1.2,0,0,1,.18.7,3.12,3.12,0,0,1,0,.48,2.44,2.44,0,0,1-.3.83,1.63,1.63,0,0,1-.44.5,1.31,1.31,0,0,1-.45.22H81.1v0Zm0-3.15v0.53H81a0.92,0.92,0,0,0-.27.17,1.21,1.21,0,0,0-.24.34,2,2,0,0,0-.16.51,2.49,2.49,0,0,0,0,.37,0.85,0.85,0,0,0,.09.41,0.55,0.55,0,0,0,.21.23,0.65,0.65,0,0,0,.27.06h0.2v0.54h-0.3a1.48,1.48,0,0,1-.44-0.08A0.83,0.83,0,0,1,80,19.48a1.15,1.15,0,0,1-.18-0.7,3,3,0,0,1,0-.48,2.52,2.52,0,0,1,.3-0.83,1.63,1.63,0,0,1,.44-0.5,1.51,1.51,0,0,1,.45-0.2h0.1v0ZM69.71,19.9V19.36h0.07A0.82,0.82,0,0,0,70,19.17a1.11,1.11,0,0,0,.24-0.33,2.2,2.2,0,0,0,.16-0.52,2.63,2.63,0,0,0,0-.37,0.85,0.85,0,0,0-.09-0.41,0.47,0.47,0,0,0-.21-0.22,0.53,0.53,0,0,0-.27-0.07h-0.2V16.76a1.22,1.22,0,0,1,.31,0,1.29,1.29,0,0,1,.44.09,0.83,0.83,0,0,1,.4.34,1.13,1.13,0,0,1,.18.7,3.12,3.12,0,0,1,0,.48,2.45,2.45,0,0,1-.29.83,1.77,1.77,0,0,1-.44.5,1.43,1.43,0,0,1-.46.22h-0.1Zm5-2.57h-1.4L73.18,18H74.5l-0.11.55h-1.3l-0.15.79h1.49l-0.11.54h-2l0.57-3.06h2Zm-5-.58v0.53H69.65a1.06,1.06,0,0,0-.27.17,1,1,0,0,0-.23.34,1.67,1.67,0,0,0-.16.51,1.63,1.63,0,0,0,0,.37,0.85,0.85,0,0,0,.09.41,0.5,0.5,0,0,0,.21.23,0.61,0.61,0,0,0,.27.06h0.19v0.54h-0.3A1.53,1.53,0,0,1,69,19.85a0.92,0.92,0,0,1-.41-0.35,1.22,1.22,0,0,1-.17-0.7,2.2,2.2,0,0,1,0-.48,2.32,2.32,0,0,1,.29-0.83,1.63,1.63,0,0,1,.44-0.5,1.55,1.55,0,0,1,.46-0.22H69.7v0Zm-7.51,2V18.23h0a0.4,0.4,0,0,0,.37-0.15,0.76,0.76,0,0,0,.13-0.33,0.59,0.59,0,0,0,0-.13,0.23,0.23,0,0,0-.1-0.22,0.56,0.56,0,0,0-.33-0.08H62.19V16.79h0.4a0.64,0.64,0,0,1,.5.19,0.7,0.7,0,0,1,.18.52,1.35,1.35,0,0,1,0,.27,1.58,1.58,0,0,1-.14.4,1.15,1.15,0,0,1-.35.4,0.9,0.9,0,0,1-.55.16h0Zm3-.26L65,19.85H64.41L65,16.79h0.56L65.35,18h1l0.22-1.16h0.56l-0.58,3.06H66l0.26-1.37H65.2Zm-3-1.69v0.52H61.84l-0.16.9H62.2v0.52H61.58l-0.21,1.11H60.81l0.58-3.06H62.2ZM50.77,19.9V19.36h0.06a0.76,0.76,0,0,0,.27-0.17,1.09,1.09,0,0,0,.23-0.33,1.83,1.83,0,0,0,.16-0.52,1.69,1.69,0,0,0,0-.37,1,1,0,0,0-.08-0.41,0.47,0.47,0,0,0-.21-0.22,0.53,0.53,0,0,0-.2-0.08H50.8v-0.5a1.15,1.15,0,0,1,.3,0,1.25,1.25,0,0,1,.44.09,0.85,0.85,0,0,1,.41.34,1.2,1.2,0,0,1,.17.7,2.89,2.89,0,0,1-.34,1.31,1.63,1.63,0,0,1-.44.5,1.31,1.31,0,0,1-.45.22h-0.1Zm3.38-1.41L53.9,19.85H53.34l0.57-3.06h0.56L54.26,18h1l0.22-1.16H56L55.5,19.85H54.94l0.26-1.37h-1Zm5.47-1.15H58.2L58.08,18h1.3l-0.1.55H58l-0.14.79h1.48l-0.11.54h-2l0.58-3.06h2Zm-8.85-.58v0.53H50.71a0.92,0.92,0,0,0-.27.17,1.21,1.21,0,0,0-.24.34,2,2,0,0,0-.16.51,2.49,2.49,0,0,0,0,.37,0.85,0.85,0,0,0,.09.41,0.55,0.55,0,0,0,.21.23,0.65,0.65,0,0,0,.27.06h0.2v0.54h-0.3A1.48,1.48,0,0,1,50,19.85a0.83,0.83,0,0,1-.41-0.35,1.15,1.15,0,0,1-.18-0.7,3,3,0,0,1,0-.48,2.52,2.52,0,0,1,.3-0.83,1.63,1.63,0,0,1,.44-0.5,1.51,1.51,0,0,1,.45-0.22h0.17ZM35.28,19.22V18.7h0.35l-0.11-1.21h0L35.29,18V16.79H36l0.37,3.06H35.74V19.22H35.28Zm3.16,0.63H37.88l0.57-3.06H39L38.77,18,40,16.79h0.72L39.39,18l0.82,1.81H39.53L39,18.52l-0.32.3Zm5.11,0h-1.9l0.57-3.06h0.56l-0.47,2.52h1l0.46-2.52h0.57l-0.47,2.52h0.26L44,20.42H43.44Zm2.61-.92h0l1.46-2.14h0.59l-0.57,3.06H47.13l0.4-2.18h0L46,19.85H45.46L46,16.79h0.52Zm-10.87-2V18L35,18.75h0.34v0.47H34.7l-0.3.63H33.8Zm-11.21,3V19.36h0.07a0.82,0.82,0,0,0,.26-0.17,1.31,1.31,0,0,0,.24-0.33,2.2,2.2,0,0,0,.16-0.52,2.54,2.54,0,0,0,0-.37,1,1,0,0,0-.08-0.41,0.47,0.47,0,0,0-.21-0.22,0.53,0.53,0,0,0-.27-0.07h-0.2V16.76a1.15,1.15,0,0,1,.3,0,1.34,1.34,0,0,1,.45.09,0.83,0.83,0,0,1,.4.34,1.2,1.2,0,0,1,.18.7,3.12,3.12,0,0,1,0,.48,2.44,2.44,0,0,1-.3.83,1.63,1.63,0,0,1-.44.5,1.31,1.31,0,0,1-.45.22H24.08Zm5-2.57h-1.4L27.55,18h1.31l-0.11.55h-1.3l-0.15.79h1.48l-0.1.54h-2l0.57-3.06h2Zm-5-.58v0.53H24a0.92,0.92,0,0,0-.27.17,1.21,1.21,0,0,0-.24.34,2,2,0,0,0-.16.51,2.44,2.44,0,0,0,0,.37,0.86,0.86,0,0,0,.08.41,0.55,0.55,0,0,0,.21.23,0.68,0.68,0,0,0,.27.06h0.2v0.54h-0.3a1.48,1.48,0,0,1-.44-0.08A0.88,0.88,0,0,1,23,19.51a1.22,1.22,0,0,1-.18-0.7,3,3,0,0,1,0-.48,2.52,2.52,0,0,1,.3-0.83,1.63,1.63,0,0,1,.44-0.5A1.51,1.51,0,0,1,24,16.77h0.08Zm-8.14,3.1V19.32a0.63,0.63,0,0,0,.33-0.1,0.51,0.51,0,0,0,.17-0.33,1.44,1.44,0,0,0,0-.16,0.29,0.29,0,0,0-.27-0.31H15.94V17.9h0.39a0.63,0.63,0,0,1,.54.22,1,1,0,0,1,.15.54,1.44,1.44,0,0,1,0,.21,1.66,1.66,0,0,1-.13.4,1,1,0,0,1-.22.31,0.86,0.86,0,0,1-.3.2,0.92,0.92,0,0,1-.37.07h0Zm1.78,0H17.16l0.57-3.06h0.56Zm2.84,0H20l0.47-2.52H19.66l0.1-.54h2.18l-0.11.54H21Zm-4.62-2v0.54H15.59l-0.17.89h0.52v0.53H14.76l0.57-3.06H15.9l-0.21,1.11h0.25Zm-3.42.85v-0.5h0a0.41,0.41,0,0,0,.38-0.15,0.9,0.9,0,0,0,.1-0.33,0.59,0.59,0,0,0,0-.13,0.24,0.24,0,0,0-.07-0.2,0.55,0.55,0,0,0-.32-0.08h-0.1V16.79h0.41a0.64,0.64,0,0,1,.5.19,0.74,0.74,0,0,1,.17.52,1.35,1.35,0,0,1,0,.27,1.28,1.28,0,0,1-.14.4,1.22,1.22,0,0,1-.34.4,0.93,0.93,0,0,1-.55.16h0Zm0-2v0.59H12.17l-0.17.9h0.52v0.52H11.9l-0.2,1.11H11.14l0.57-3.06h0.81V16.73ZM4.76,19.22V18.7H5.1L5,17.49H5L4.77,18V16.79H5.45l0.38,3.06H5.22l-0.06-.63H4.76Zm3.16,0.63H7.35l0.57-3.06H8.49L8.26,18l1.25-1.24h0.72L8.9,18l0.82,1.81H9L8.42,18.52l-0.31.3ZM1.77,18.23a0.5,0.5,0,0,1,.21.09,0.65,0.65,0,0,1,.18.21,0.54,0.54,0,0,1,.08.29V19a1.3,1.3,0,0,1-.24.46,1.25,1.25,0,0,1-.41.36,1.32,1.32,0,0,1-.63.13,1.29,1.29,0,0,1-.6-0.12,0.67,0.67,0,0,1-.3-0.29A0.87,0.87,0,0,1,0,19.14a2.23,2.23,0,0,1,0-.23H0.56V19a0.39,0.39,0,0,0,.12.28,0.56,0.56,0,0,0,.4.13,0.73,0.73,0,0,0,.38-0.13A0.53,0.53,0,0,0,1.67,19V18.87a0.31,0.31,0,0,0-.13-0.27,0.48,0.48,0,0,0-.32-0.1H0.8L0.9,18H1.31a0.59,0.59,0,0,0,.35-0.11,0.39,0.39,0,0,0,.18-0.27,0.25,0.25,0,0,0,0-.07,0.27,0.27,0,0,0-.12-0.23,0.51,0.51,0,0,0-.31-0.08,0.56,0.56,0,0,0-.41.19,0.63,0.63,0,0,0-.16.32H0.29a1.11,1.11,0,0,1,.12-0.32,1.45,1.45,0,0,1,.23-0.33A1.1,1.1,0,0,1,1,16.81a1.28,1.28,0,0,1,.52-0.1,1.06,1.06,0,0,1,.53.11,0.61,0.61,0,0,1,.27.27,0.75,0.75,0,0,1,.09.36,1,1,0,0,1,0,.17,0.7,0.7,0,0,1-.22.4,1,1,0,0,1-.39.2h0Zm3-1.35V18l-0.34.73H4.76v0.52H4.17l-0.3.63H3.28Z" transform="translate(0 0.09)"/><path class="cls-1" d="M108.24,14.42v-2.1h0.5l0.49-2.76h-1V7.42h2l1.46,1.65L111,12.8l-2,1.62h-0.76Zm0-7.68V3.21h0.64Zm0-3.57V6.78l-0.13.64h0.13V9.55h-0.51l-0.48,2.76h1v2.11h-3.37V12.19l1.59-9h1.78v0ZM104.87,7.1l0.39-2.29-0.39-.39V7.1Zm0-2.74V7.14L104.54,9l-2,1.65h-0.71V8.59h0.42l0.58-3.25h-1V3.21h2Zm0,7.79v2.27h-0.4Zm-3.09-9V5.34h-0.41l-0.59,3.25h1v2.1h-1.35l-0.67,3.73h-2.4V14.33l2-11.12h2.46Zm-4.43.13V3.15h0V3.28Zm0-.13V3.33L97,5.34H93.52l-0.2,1.08V3.21h4Zm0,11.12v0.15h0V14.27Zm-4,.13V12.32H94l0.43-2.46H93.32V7.77H95.4l1.46,1.65-0.59,3.43-2,1.65h-0.9Zm0-11.25V6.42L93.08,7.77h0.24V9.86H92.7l-0.43,2.46h1.06v2.1H89.77V12.85l1.7-9.64h1.85ZM89.77,4.82L90,3.21H89.77V4.82Zm0-1.61V4.82l-1.7,9.6H86.31V10.74l0.15-.85H86.31V7.77h0.54l0.43-2.43h-1V3.21h3.49Zm0,9.64-0.28,1.57h0.29V12.85h0ZM86.31,3.21V5.34H85.78L85.35,7.77h1V9.9H85l-0.82,4.52h-1.8v-3.5l0.15-.9,1.69-1.16-1.3-1.12,0.53-2.88,2-1.65h0.86Zm0,7.53-0.63,3.68h0.63V10.74Zm-3.93-5.4h0.23L83,3.21H82.38V5.34Zm0-2.13V5.34H80.93l-1.6,9.08H77V14l1.56-8.7H77V4.69l0.26-1.48h5.12Zm0,7.71-0.62,3.5h0.62v-3.5ZM77,3.42l0.12-.19H77V3.42Zm0-.19V3.42L74,8.31l1.33,6.11H72.68L71.56,9.6l-0.9,4.82H68.41V13.68L70.25,3.21h2.4L71.82,8l2.69-4.78H77v0Zm0,1.48-0.13.64H77V4.71Zm0,9.34-0.1.37H77V14.05Zm-8.57-8.4,0.13-.78-0.13-.15V5.65Zm0-.93V5.63l-1.27,7.18L65.1,14.42H64.62v-2.1h0.19l1.25-7H64.62V3.21h2.46Zm0,9-0.16.7H68.4V13.68ZM64.62,3.21V5.34H64.38l-1.21,7h1.45v2.08H62.11l-1.46-1.65,1.4-8,2-1.65h0.52ZM48.92,14.42V12.77l1.72-9.56H53L52,9h0l3-5.79h2.1l-2,11.21H52.7l1-5.79h0l-3,5.79H48.92Zm0-9.51,0.3-1.74h-0.3V4.91Zm8.16-5H55.41L55.22,1.08h-2L53.46,0H51.78l-0.23,1.2,0.81,1.13h3.33l1.16-1.13Zm-8.16,3.3V5l-1.64,9.47H45V13.74L46.9,3.21h2Zm0,9.56-0.3,1.65h0.31V12.77h0Zm-4-3L45,9.07l0-.14V9.78H44.92Zm0-.85V9.77l-0.54,3-2,1.65H41.59v-2.1h0.5l0.48-2.76h-1V7.42h2Zm0,4.81-0.07.69H45V13.74H44.92Zm-3.38-7V3.21H42.2Zm0-3.53V6.74l-0.07.68H41.6V9.55H41.08L40.6,12.32h1v2.1H38.1V12.74l1.68-9.53h1.76ZM38.09,4.92l0.3-1.71h-0.3V4.92Zm0-1.71V4.92l-1.68,9.5H34l0.82-4.56H33.16l-0.83,4.56H30.08v-1L31.89,3.21h2.43L33.5,7.77h1.67L36,3.21h2.09Zm0,9.53-0.31,1.68h0.31V12.74Zm-8-6.92,0.17-1-0.17-.2V5.83h0Zm0-1.17V5.83L29.77,7.51H27.35l0.38-2.17H26.09l-1.25,7h1.68L27,9.64h2.42l-0.54,3.17-2,1.65h-3l-1.46-1.65,1.4-8,2-1.65h3Zm0,8.81-0.19,1h0.17v-1Zm-11.36-1.1V10.23h0.56l0.31-4.9H19.33l-0.61,2V3.21h3L21.57,14.42h-2.5l0.13-2.1H18.73v0Zm0-9.15V7.35l-0.87,2.89h0.87v2.13H17.25l-0.57,2.05H15V11.77l2.77-8.56h1ZM15,9.15L15.14,9l0.72-4.19L15,3.88V9.15Zm0-5.26V9.15l-1.9,1.54H12.4V8.59h0.4l0.58-3.25h-1V3.21h2Zm0,7.89v2.64H14.14ZM8.56,4.21l0.63-1H8.56v1Zm3.85-1V5.34H12L11.42,8.59h1v2.1H11l-0.63,3.73H8.56V11L10,3.21h2.41Zm-7.68,0H2.3l-2,11.21H2.75L3.62,9.6h0l1.11,4.82H7.41L6,8.29,8.56,4.21v-1h-2L3.94,8h0ZM8.56,11v3.41H7.94Z" transform="translate(0 0.09)"/><path class="cls-1" d="M138,14.05h0.22l1.91-1.41,0.67-3.89-0.93-.82,1.21-.82,0.5-2.92-1.42-1.41H138V4.65h0.77L138.35,7H138V8.89h0v5.16ZM135.2,2.78l-1.94,11.28H138V9.13l-0.53,3.06h-1.14L136.9,8.9H138V7h-0.78l0.41-2.37H138V2.78h-2.8Z" transform="translate(0 0.09)"/><polygon class="cls-1" points="128.78 2.87 126.84 14.15 131.8 14.15 132.12 12.28 129.91 12.28 130.48 8.99 132.44 8.99 132.77 7.11 130.79 7.11 131.21 4.75 133.42 4.75 133.74 2.87 128.78 2.87"/><polygon class="cls-1" points="114.18 7.11 113.86 8.99 118.82 8.99 119.14 7.11 114.18 7.11"/><polygon class="cls-1" points="127.42 2.86 124.98 2.86 124.22 7.43 122.54 7.43 123.34 2.86 120.9 2.86 118.97 14.14 121.4 14.14 122.2 9.57 123.85 9.57 123.05 14.14 125.48 14.14 127.42 2.86"/><path class="cls-1" d="M147.82,2.77h-3V6.91l0.6-2h0.26l-0.29,4.91h-0.57V12h0.49l-0.11,2.1h2.5Zm-3,0h-1L140.3,14h2.54l0.57-2.1h1.45V9.81H144l0.86-2.9V2.77h0Z" transform="translate(0 0.09)"/></svg>