                         <svg width="24 " height="24 " viewBox="0 0 24 24 " fill="none " xmlns="http://www.w3.org/2000/svg ">
                                <path d="M7.69418 9.60235L6.08418 11.2124L11.2592 16.3874L22.7592 4.88735L21.1492 3.27735L11.2592 13.1674L7.69418 9.60235ZM21.6092 11.7874C21.6092 16.8474 17.4692 20.9874 12.4092 20.9874C7.34918 20.9874 3.20918 16.8474
                3.20918 11.7874C3.20918 6.72735 7.34918 2.58735 12.4092 2.58735C13.3292 2.58735 14.1342 2.70235 14.9392 2.93235L16.7792 1.09235C15.3992 0.632354 13.9042 0.287354 12.4092 0.287354C6.08418 0.287354 0.90918 5.46235 0.90918 11.7874C0.90918 18.1124
                6.08418 23.2874 12.4092 23.2874C18.7342 23.2874 23.9092 18.1124 23.9092 11.7874H21.6092Z " fill="white "></path>
                            </svg>