            <svg width="26 " height="26 " viewBox="0 0 26 26 " fill="none " xmlns="http://www.w3.org/2000/svg ">
                <path d="M15.1063 13.2953L24.8408 3.56051C25.4743 2.9273 25.4743 1.90349 24.8408 1.27029C24.2076 0.637078 23.1838 0.637078 22.5506 1.27029L12.8158 11.0051L3.08128 1.27029C2.44777 0.637078 1.42426 0.637078 0.791047 1.27029C0.157541 1.90349
                0.157541 2.9273 0.791047 3.56051L10.5256 13.2953L0.791047 23.0301C0.157541 23.6633 0.157541 24.6871 0.791047 25.3203C1.10661 25.6362 1.52154 25.7949 1.93616 25.7949C2.35079 25.7949 2.76541 25.6362 3.08128 25.3203L12.8158 15.5855L22.5506 25.3203C22.8665
                25.6362 23.2811 25.7949 23.6957 25.7949C24.1104 25.7949 24.525 25.6362 24.8408 25.3203C25.4743 24.6871 25.4743 23.6633 24.8408 23.0301L15.1063 13.2953Z " fill="#333333 "></path>
              </svg>