<svg id="Слой_1" data-name="Слой 1" xmlns="http://www.w3.org/2000/svg" viewBox="0 0 164.33 41.35"><defs><style>.cls-1{fill:#1d5984;}</style></defs><title>logo neva blue</title><path class="cls-1" d="M86.89,14.31l-5.12,25.9a0.93,0.93,0,0,0,.74,1.08l0.17,0h29.19c3,0,6.13-2.09,6.72-5l0.75-3.75c0.57-2.83-1-5.51-3.88-5.52h0.11a5.86,5.86,0,0,0,5.79-4.71l0.74-3.92a4.47,4.47,0,0,0-4.43-5.18H88.21A1.35,1.35,0,0,0,86.89,14.31Zm8.51,5.21H111a0.84,0.84,0,0,1,.82,1l-0.41,2a1.51,1.51,0,0,1-1.49,1.23H94.57ZM93.29,30.19h15.44a0.84,0.84,0,0,1,.82,1L109,33.82A1.52,1.52,0,0,1,107.55,35H92.35Z" transform="translate(-0.08 0)"/><path class="cls-1" d="M36.1,40.25l5-25.9a0.92,0.92,0,0,0-.73-1.07l-0.18,0H32.87a1.35,1.35,0,0,0-1.32,1.08L29.7,23.92H12.83l1.85-9.57a0.92,0.92,0,0,0-.73-1.07l-0.18,0H6.47a1.35,1.35,0,0,0-1.32,1.09L0.1,40.24a0.93,0.93,0,0,0,.74,1.08l0.17,0H8.34a1.36,1.36,0,0,0,1.32-1.09l2-10H28.47l-1.94,10a0.93,0.93,0,0,0,.74,1.08l0.17,0h7.3A1.34,1.34,0,0,0,36.1,40.25Z" transform="translate(-0.08 0)"/><path class="cls-1" d="M126.78,19.36l-0.21,1.09a0.77,0.77,0,0,0,.62.9h8.06a0.76,0.76,0,0,0,.75-0.62,1.52,1.52,0,0,1,1.49-1.22H152a1,1,0,0,1,1,1.23l-0.61,3.09H129.81a4.75,4.75,0,0,0-4.66,3.82l-1.49,7.57a5.08,5.08,0,0,0,4.9,6.12H145a6,6,0,0,0,4.15-2l-0.2,1a0.8,0.8,0,0,0,.57,1l0.12,0h7.68a1.34,1.34,0,0,0,1.26-1.07l4.15-20.91a5.13,5.13,0,0,0-5-6.13H134.23A7.59,7.59,0,0,0,126.78,19.36Zm23.6,14.44a1.52,1.52,0,0,1-1.5,1.23H134.27a0.91,0.91,0,0,1-.89-1.09l0.52-2.56a1.44,1.44,0,0,1,1.43-1.19H151.1Z" transform="translate(-0.08 0)"/><path class="cls-1" d="M77.07,13.35a5.13,5.13,0,0,0-1-.1H52.35a7.44,7.44,0,0,0-7.3,6v0l-3.17,16a5,5,0,0,0,4.8,6.11H71a7.59,7.59,0,0,0,7-6.09l0.23-1.13a0.77,0.77,0,0,0-.62-0.9H69.42a0.75,0.75,0,0,0-.74.62A1.52,1.52,0,0,1,67.22,35H52.79a1,1,0,0,1-1-1.23l0.72-3.61H77.82A1.36,1.36,0,0,0,79.1,29.1l2-9.74A5.12,5.12,0,0,0,77.07,13.35Zm-5.76,7.38-0.64,3.06H53.73l0.64-3.07a1.52,1.52,0,0,1,1.5-1.22H70.31A1,1,0,0,1,71.31,20.73Z" transform="translate(-0.08 0)"/><polygon class="cls-1" points="17.45 0.13 14.52 0.13 11.87 4.56 11.18 0.13 8.39 0.13 6.62 8.14 8.69 8.14 9.85 2.85 10.7 8.14 11.62 8.14 14.8 2.85 13.64 8.14 15.69 8.14 17.45 0.18 17.45 0.13"/><path class="cls-1" d="M33.07,4h0V4h0V4h0v0h0v0h0v0h0v0h0v0h0v0h0v0h0v0h0v0h0v0h0v0h0v0h0v0A3.76,3.76,0,0,0,29,0,4.61,4.61,0,0,0,24.3,4.51s0,0.09,0,.13h0a3.7,3.7,0,0,0,4,3.64A4.62,4.62,0,0,0,33.07,4ZM28.49,6.45h0a1.9,1.9,0,0,1-2-1.8s0-.1,0-0.14h0a2.56,2.56,0,0,1,2.42-2.69h0a1.89,1.89,0,0,1,2,1.78q0,0.08,0,.16A2.55,2.55,0,0,1,28.49,6.45Z" transform="translate(-0.08 0)"/><polygon class="cls-1" points="46.76 1.93 47.15 0.18 47.15 0.13 40.62 0.13 40.21 1.93 42.46 1.93 41.1 8.14 43.17 8.14 44.52 1.93 46.76 1.93"/><path class="cls-1" d="M62.17,3.75s0-.09,0-0.14a3.7,3.7,0,0,0-4-3.61,4.61,4.61,0,0,0-4.73,4.49q0,0.08,0,.15a3.7,3.7,0,0,0,4,3.64A4.63,4.63,0,0,0,62.17,3.75Zm-4.53,2.7h0a1.9,1.9,0,0,1-2-1.8s0-.1,0-0.14h0A2.56,2.56,0,0,1,58,1.82h0A1.89,1.89,0,0,1,60,3.6q0,0.08,0,.16A2.55,2.55,0,0,1,57.64,6.45Z" transform="translate(-0.08 0)"/><polygon class="cls-1" points="75.9 1.93 76.3 0.13 69.76 0.13 69.36 1.93 71.6 1.93 70.24 8.14 72.31 8.14 73.67 1.93 75.9 1.93"/><polygon class="cls-1" points="84.69 6.33 84.99 4.98 88.71 4.98 89.11 3.19 85.39 3.19 85.67 1.93 89.45 1.93 89.86 0.13 84 0.13 82.23 8.14 88.1 8.14 88.5 6.33 84.69 6.33"/><polygon class="cls-1" points="105.1 0.13 102.54 0.13 100.53 2.53 99.43 0.13 97.11 0.13 98.93 3.91 95.15 8.14 97.71 8.14 99.95 5.56 101.18 8.14 103.52 8.14 101.57 4.15 105.1 0.13"/><polygon class="cls-1" points="120.03 0.13 117.97 0.13 117.32 3.11 113.99 3.11 114.66 0.13 112.59 0.13 110.82 8.14 112.89 8.14 113.6 4.91 116.92 4.91 116.21 8.14 118.28 8.14 120.03 0.18 120.03 0.13"/><polygon class="cls-1" points="133.48 0.13 129.25 4.68 130.26 0.13 128.19 0.13 126.42 8.14 128.42 8.14 132.85 3.35 131.78 8.14 133.86 8.14 135.62 0.13 133.48 0.13"/><polygon class="cls-1" points="150.83 0.14 150.83 0.13 148.19 0.13 145.16 3.27 145.84 0.13 143.77 0.13 142.02 8.14 144.07 8.14 144.59 5.79 145.33 5.05 146.82 8.14 149.24 8.14 146.92 3.88 150.83 0.14"/><path class="cls-1" d="M162,7l0.14,1.14h2.24v0h0l-1.25-7.94h-2.59l-4.77,8h2.45L158.87,7H162Zm-0.51-4.86,0.35,3h-2Z" transform="translate(-0.08 0)"/></svg>