<svg id="Слой_1" data-name="Слой 1"
    xmlns="http://www.w3.org/2000/svg" viewBox="0 0 428.95 108.73">
    <defs>
        <style>.cls-1{fill:#b8b8b8;}.cls-2{fill:#fff;}</style>
    </defs>
    <title>logo neva</title>
    <path class="cls-1" d="M227.26,38.3l-13.33,67.42a2.42,2.42,0,0,0,1.93,2.81h76.42c7.81,0,16-5.44,17.49-13l2-9.76c1.48-7.37-2.6-14.34-10.1-14.37h0.29A15.25,15.25,0,0,0,317,59.13l1.93-10.2a11.64,11.64,0,0,0-11.53-13.48H230.69A3.51,3.51,0,0,0,227.26,38.3Zm22.15,13.56H290a2.19,2.19,0,0,1,2.13,2.6l-1.07,5.21a3.93,3.93,0,0,1-3.88,3.2h-40Zm-5.49,27.77h40.19a2.19,2.19,0,0,1,2.13,2.6l-1.43,6.85A4,4,0,0,1,281,92.16H241.47Z" transform="translate(0 0.01)"/>
    <path class="cls-1" d="M95.06,105.82l13-67.42a2.39,2.39,0,0,0-1.9-2.79H86.65a3.51,3.51,0,0,0-3.44,2.81L78.4,63.32H34.49L39.3,38.41a2.39,2.39,0,0,0-1.9-2.79H17.93a3.51,3.51,0,0,0-3.44,2.84L1.35,105.8a2.42,2.42,0,0,0,1.93,2.81H22.8a3.54,3.54,0,0,0,3.44-2.84l5.21-26H75.2l-5,26a2.42,2.42,0,0,0,1.93,2.81H91.52A3.49,3.49,0,0,0,95.06,105.82Z" transform="translate(0 0.01)"/>
    <path class="cls-1" d="M331.09,51.45l-0.55,2.84a2,2,0,0,0,1.6,2.34h21a2,2,0,0,0,2-1.61A4,4,0,0,1,359,51.84h37.77a2.6,2.6,0,0,1,2.6,3.2l-1.59,8H339A12.36,12.36,0,0,0,326.85,73L323,92.73a13.22,13.22,0,0,0,12.75,15.93h42.79a15.62,15.62,0,0,0,10.8-5.21l-0.52,2.6a2.08,2.08,0,0,0,1.41,2.58l0.07,0h20.3a3.49,3.49,0,0,0,3.28-2.79l10.8-54.43a13.35,13.35,0,0,0-13-16H350.48A19.76,19.76,0,0,0,331.09,51.45ZM392.52,89a4,4,0,0,1-3.9,3.2h-38a2.37,2.37,0,0,1-2.32-2.84l1.35-6.66a3.75,3.75,0,0,1,3.72-3.1h41Z" transform="translate(0 0.01)"/>
    <path class="cls-1" d="M201.7,35.81a13.35,13.35,0,0,0-2.6-.26H137.35a19.37,19.37,0,0,0-19,15.62h0L110.1,92.81a13,13,0,0,0,12.49,15.9h63.3a19.76,19.76,0,0,0,18.22-15.85l0.6-2.94a2,2,0,0,0-1.6-2.34H181.79a2,2,0,0,0-1.93,1.61,4,4,0,0,1-3.8,3H138.5a2.6,2.6,0,0,1-2.6-3.2l1.87-9.4h65.88A3.54,3.54,0,0,0,207,76.8l5.21-25.35A13.33,13.33,0,0,0,201.7,35.81ZM186.7,55L185,63H140.95l1.67-8a4,4,0,0,1,3.9-3.18H184.1A2.6,2.6,0,0,1,186.7,55Z" transform="translate(0 0.01)"/>
    <polygon class="cls-1" points="46.72 1.41 39.09 1.41 32.19 12.94 30.39 1.41 23.13 1.41 18.52 22.26 23.91 22.26 26.93 8.49 29.14 22.26 31.54 22.26 39.82 8.49 36.8 22.26 42.13 22.26 46.72 1.54 46.72 1.41"/>
    <path class="cls-1" d="M87.17,11.47h0A9.79,9.79,0,0,0,76.57,1.06,12,12,0,0,0,64.34,12.8v0.34h0a9.63,9.63,0,0,0,9.75,9.51l0.66,0A12,12,0,0,0,87.17,11.47ZM75.25,17.85h0A5,5,0,0,1,70,13.17h0V12.8h0a6.66,6.66,0,0,1,6.3-7h0a4.92,4.92,0,0,1,5.2,4.62v0q0,0.21,0,.42a6.64,6.64,0,0,1-6.25,7h0Z" transform="translate(0 0.01)"/>
    <polygon class="cls-1" points="123.01 6.09 124.02 1.54 124.02 1.41 107.02 1.41 105.96 6.09 111.81 6.09 108.27 22.26 113.66 22.26 117.18 6.09 123.01 6.09"/>
    <path class="cls-1" d="M162.91,10.82V10.45A9.63,9.63,0,0,0,153.08,1l-0.58,0a12,12,0,0,0-12.31,11.68h0v0.39a9.63,9.63,0,0,0,9.75,9.51l0.66,0a12.05,12.05,0,0,0,12.31-11.79h0Zm-11.79,7h0a5,5,0,0,1-5.21-4.67h0V12.8h0a6.66,6.66,0,0,1,6.14-7h0a4.92,4.92,0,0,1,5.2,4.62v0.43A6.64,6.64,0,0,1,151.12,17.85Z" transform="translate(0 0.01)"/>
    <polygon class="cls-1" points="198.85 6.09 199.9 1.41 182.87 1.41 181.83 6.09 187.66 6.09 184.12 22.26 189.51 22.26 193.05 6.09 198.85 6.09"/>
    <polygon class="cls-1" points="221.74 17.55 222.52 14.03 232.2 14.03 233.24 9.37 223.56 9.37 224.29 6.09 234.13 6.09 235.19 1.41 219.94 1.41 215.33 22.26 230.61 22.26 231.65 17.55 221.74 17.55"/>
    <polygon class="cls-1" points="274.86 1.41 268.2 1.41 262.96 7.66 260.1 1.41 254.06 1.41 258.8 11.25 248.96 22.26 255.63 22.26 261.46 15.54 264.66 22.26 270.75 22.26 265.67 11.87 274.86 1.41"/>
    <polygon class="cls-1" points="313.72 1.41 308.36 1.41 306.67 9.16 298 9.16 299.75 1.41 294.36 1.41 289.75 22.26 295.14 22.26 296.99 13.85 305.63 13.85 303.78 22.26 309.17 22.26 313.72 1.54 313.72 1.41"/>
    <polygon class="cls-1" points="348.73 1.41 337.72 13.25 340.35 1.41 334.96 1.41 330.36 22.26 335.56 22.26 347.09 9.79 344.31 22.26 349.72 22.26 354.3 1.41 348.73 1.41"/>
    <polygon class="cls-1" points="393.89 1.44 393.89 1.41 387.02 1.41 379.13 9.58 380.9 1.41 375.52 1.41 370.96 22.26 376.3 22.26 377.65 16.14 379.58 14.21 383.45 22.26 389.75 22.26 383.71 11.17 393.89 1.44"/>
    <path class="cls-1" d="M422.76,19.28l0.36,3H429L425.7,1.58H419L406.55,22.4h6.38l1.69-3.12h8.15ZM421.44,6.63l0.91,7.81h-5.21Z" transform="translate(0 0.01)"/>
    <path class="cls-2" d="M226,37.27l-13.33,67.42a2.42,2.42,0,0,0,1.93,2.81H291c7.81,0,16-5.44,17.49-13l2-9.76c1.48-7.37-2.6-14.34-10.1-14.37h0.29a15.25,15.25,0,0,0,15.07-12.26l1.93-10.2a11.64,11.64,0,0,0-11.53-13.48H229.39A3.51,3.51,0,0,0,226,37.27ZM248.1,50.83h40.61a2.19,2.19,0,0,1,2.13,2.6l-1.07,5.21a3.93,3.93,0,0,1-3.88,3.2h-40ZM242.61,78.6H282.8a2.19,2.19,0,0,1,2.13,2.6l-1.43,6.85a4,4,0,0,1-3.77,3.07H240.16Z" transform="translate(0 0.01)"/>
    <path class="cls-2" d="M93.75,104.79l13-67.42a2.39,2.39,0,0,0-1.9-2.79H85.34a3.51,3.51,0,0,0-3.44,2.81L77.09,62.28H33.18L38,37.37a2.39,2.39,0,0,0-1.9-2.79H16.62a3.51,3.51,0,0,0-3.44,2.84L0,104.76A2.42,2.42,0,0,0,2,107.57H21.49a3.54,3.54,0,0,0,3.44-2.84l5.21-26H73.89l-5,26a2.42,2.42,0,0,0,1.93,2.81H90.21A3.49,3.49,0,0,0,93.75,104.79Z" transform="translate(0 0.01)"/>
    <path class="cls-2" d="M329.78,50.41l-0.55,2.84a2,2,0,0,0,1.6,2.34h21a2,2,0,0,0,2-1.61,4,4,0,0,1,3.88-3.18h37.77A2.6,2.6,0,0,1,398,54l-1.59,8H337.67A12.36,12.36,0,0,0,325.54,72l-3.88,19.7a13.22,13.22,0,0,0,12.75,15.93h42.79a15.62,15.62,0,0,0,10.8-5.21l-0.52,2.6a2.08,2.08,0,0,0,1.41,2.58l0.07,0h20.3a3.49,3.49,0,0,0,3.28-2.79l10.8-54.43a13.35,13.35,0,0,0-13-16H349.17A19.76,19.76,0,0,0,329.78,50.41ZM391.21,88a4,4,0,0,1-3.9,3.2h-38A2.37,2.37,0,0,1,347,88.36l1.35-6.66A3.75,3.75,0,0,1,352,78.6h41Z" transform="translate(0 0.01)"/>
    <path class="cls-2" d="M200.39,34.77a13.35,13.35,0,0,0-2.6-.26H136a19.37,19.37,0,0,0-19,15.62h0l-8.25,41.65a13,13,0,0,0,12.49,15.9h63.3a19.76,19.76,0,0,0,18.22-15.85l0.6-2.94a2,2,0,0,0-1.6-2.34H180.48a2,2,0,0,0-1.93,1.61,4,4,0,0,1-3.8,3H137.19a2.6,2.6,0,0,1-2.6-3.2l1.87-9.4h65.88a3.54,3.54,0,0,0,3.33-2.76l5.21-25.35A13.33,13.33,0,0,0,200.39,34.77ZM185.4,54l-1.67,8H139.64l1.67-8a4,4,0,0,1,3.9-3.18H182.8A2.6,2.6,0,0,1,185.4,54Z" transform="translate(0 0.01)"/>
    <polygon class="cls-2" points="45.41 0.37 37.78 0.37 30.88 11.9 29.09 0.37 21.83 0.37 17.22 21.22 22.61 21.22 25.63 7.45 27.84 21.22 30.23 21.22 38.51 7.45 35.49 21.22 40.83 21.22 45.41 0.5 45.41 0.37"/>
    <path class="cls-2" d="M85.86,10.43h0A9.79,9.79,0,0,0,75.27,0,12,12,0,0,0,63,11.76V12.1h0a9.63,9.63,0,0,0,9.75,9.51l0.66,0A12,12,0,0,0,85.86,10.43ZM73.94,16.81h0a5,5,0,0,1-5.21-4.67h0V11.76h0a6.66,6.66,0,0,1,6.3-7h0a4.92,4.92,0,0,1,5.2,4.62v0q0,0.21,0,.42a6.64,6.64,0,0,1-6.25,7h0Z" transform="translate(0 0.01)"/>
    <polygon class="cls-2" points="121.7 5.06 122.72 0.5 122.72 0.37 105.72 0.37 104.65 5.06 110.51 5.06 106.97 21.22 112.36 21.22 115.87 5.06 121.7 5.06"/>
    <path class="cls-2" d="M161.61,9.78V9.42A9.63,9.63,0,0,0,151.78,0L151.2,0A12,12,0,0,0,138.88,11.7h0V12.1a9.63,9.63,0,0,0,9.75,9.51l0.66,0A12.05,12.05,0,0,0,161.61,9.79h0Zm-11.79,7h0a5,5,0,0,1-5.21-4.67h0V11.76h0a6.66,6.66,0,0,1,6.14-7h0A4.92,4.92,0,0,1,156,9.38V9.81A6.64,6.64,0,0,1,149.82,16.81Z" transform="translate(0 0.01)"/>
    <polygon class="cls-2" points="197.55 5.06 198.59 0.37 181.57 0.37 180.53 5.06 186.36 5.06 182.82 21.22 188.21 21.22 191.75 5.06 197.55 5.06"/>
    <polygon class="cls-2" points="220.43 16.51 221.21 13 230.89 13 231.93 8.34 222.25 8.34 222.98 5.06 232.82 5.06 233.89 0.37 218.63 0.37 214.03 21.22 229.31 21.22 230.35 16.51 220.43 16.51"/>
    <polygon class="cls-2" points="273.55 0.37 266.89 0.37 261.66 6.62 258.8 0.37 252.76 0.37 257.49 10.21 247.66 21.22 254.32 21.22 260.15 14.51 263.35 21.22 269.44 21.22 264.37 10.84 273.55 0.37"/>
    <polygon class="cls-2" points="312.42 0.37 307.05 0.37 305.36 8.13 296.69 8.13 298.44 0.37 293.05 0.37 288.44 21.22 293.83 21.22 295.68 12.82 304.32 12.82 302.47 21.22 307.86 21.22 312.42 0.5 312.42 0.37"/>
    <polygon class="cls-2" points="347.43 0.37 336.42 12.22 339.04 0.37 333.66 0.37 329.05 21.22 334.25 21.22 345.79 8.76 343 21.22 348.42 21.22 353 0.37 347.43 0.37"/>
    <polygon class="cls-2" points="392.59 0.4 392.59 0.37 385.71 0.37 377.83 8.55 379.6 0.37 374.21 0.37 369.65 21.22 374.99 21.22 376.34 15.11 378.27 13.18 382.15 21.22 388.45 21.22 382.41 10.13 392.59 0.4"/>
    <path class="cls-2" d="M421.46,18.24l0.36,3h5.83L424.4,0.54h-6.74L405.24,21.37h6.38l1.69-3.12h8.15ZM420.13,5.59L421,13.4h-5.21Z" transform="translate(0 0.01)"/>
</svg>